<?xml version="1.0" encoding="UTF-8" standalone="no"?>
<!DOCTYPE svg PUBLIC "-//W3C//DTD SVG 1.1//EN" "http://www.w3.org/Graphics/SVG/1.1/DTD/svg11.dtd">
<svg xmlns="http://www.w3.org/2000/svg" version="1.1" viewBox="0.00 0.00 2263.00 700.00">
<path stroke="#e6e6e6" stroke-width="2.00" fill="none" stroke-linecap="butt" vector-effect="non-scaling-stroke" d="
  M 536.33 158.14
  Q 535.87 158.87 535.35 159.34
  Q 430.85 253.67 326.23 347.85
  Q 315.87 357.19 311.91 361.80
  Q 293.36 383.41 291.07 411.97
  C 289.27 434.37 295.65 456.32 309.76 473.73
  Q 312.63 477.29 315.89 480.87
  Q 357.53 526.76 398.50 573.24"
/>
<path fill="#f0f0f0" d="
  M 536.33 158.14
  Q 535.87 158.87 535.35 159.34
  Q 430.85 253.67 326.23 347.85
  Q 315.87 357.19 311.91 361.80
  Q 293.36 383.41 291.07 411.97
  C 289.27 434.37 295.65 456.32 309.76 473.73
  Q 312.63 477.29 315.89 480.87
  Q 357.53 526.76 398.50 573.24
  L 258.57 699.19
  A 0.40 0.40 0.0 0 1 258.01 699.16
  Q 159.10 589.40 60.15 479.61
  C 54.46 473.29 48.89 465.58 45.18 457.77
  Q 31.22 428.40 39.12 397.22
  Q 44.20 377.18 57.92 361.54
  Q 62.55 356.27 72.19 347.60
  Q 247.47 189.97 422.58 32.27
  A 0.33 0.33 0.0 0 1 423.04 32.30
  L 536.33 158.14
  Z"
/>
<path fill="#dcdcdc" d="
  M 398.50 573.24
  Q 357.53 526.76 315.89 480.87
  Q 312.63 477.29 309.76 473.73
  C 295.65 456.32 289.27 434.37 291.07 411.97
  Q 293.36 383.41 311.91 361.80
  Q 315.87 357.19 326.23 347.85
  Q 430.85 253.67 535.35 159.34
  Q 535.87 158.87 536.33 158.14
  L 676.47 32.37
  A 0.48 0.48 0.0 0 1 677.15 32.41
  Q 776.20 142.37 875.55 252.82
  Q 899.33 279.25 898.69 314.94
  C 898.25 338.98 886.75 362.36 869.23 378.13
  Q 691.46 538.20 512.57 699.19
  A 0.40 0.39 47.5 0 1 512.01 699.16
  L 398.50 573.24
  Z"
/>
<rect fill="#ffffff" x="1210.59" y="155.00" width="69.96" height="370.00" rx="0.37"/>
<path fill="#ffffff" d="
  M 1014.86 320.00
  L 1131.68 320.00
  A 0.34 0.34 0.0 0 1 1132.02 320.34
  L 1132.02 375.16
  A 0.34 0.34 0.0 0 1 1131.68 375.50
  L 1014.90 375.51
  A 0.34 0.34 0.0 0 0 1014.56 375.85
  L 1014.53 467.66
  A 0.34 0.34 0.0 0 0 1014.87 468.00
  L 1146.68 468.00
  A 0.34 0.34 0.0 0 1 1147.02 468.34
  L 1147.02 524.66
  A 0.34 0.34 0.0 0 1 1146.68 525.00
  L 944.93 525.00
  A 0.34 0.34 0.0 0 1 944.59 524.66
  L 944.59 175.84
  A 0.34 0.34 0.0 0 1 944.93 175.50
  L 1146.68 175.49
  A 0.34 0.34 0.0 0 1 1147.02 175.83
  L 1147.02 232.16
  A 0.34 0.34 0.0 0 1 1146.68 232.50
  L 1014.90 232.50
  A 0.34 0.34 0.0 0 0 1014.56 232.84
  L 1014.52 319.66
  A 0.34 0.34 0.0 0 0 1014.86 320.00
  Z"
/>
<path fill="#ffffff" d="
  M 1402.63 408.17
  C 1404.51 429.35 1412.96 447.85 1430.63 460.13
  Q 1438.84 465.83 1448.52 468.63
  Q 1467.15 474.00 1486.77 469.38
  C 1503.80 465.36 1516.60 454.02 1524.22 438.51
  Q 1524.47 438.00 1525.04 438.00
  L 1599.70 438.00
  Q 1599.97 438.00 1599.89 438.26
  C 1595.20 454.08 1587.06 469.67 1576.31 482.43
  Q 1544.12 520.66 1495.03 527.66
  Q 1473.29 530.76 1451.32 528.41
  Q 1444.57 527.68 1437.58 526.23
  Q 1430.92 524.85 1425.00 522.92
  Q 1364.14 503.06 1341.29 444.02
  Q 1335.05 427.91 1332.77 407.25
  C 1328.46 368.23 1335.66 327.87 1358.30 296.34
  C 1374.50 273.79 1398.44 257.33 1425.72 249.67
  Q 1466.43 238.25 1508.03 247.88
  C 1542.95 255.96 1572.50 277.49 1589.88 309.03
  C 1606.09 338.48 1609.90 373.42 1605.15 406.95
  Q 1605.07 407.50 1604.52 407.50
  L 1403.24 407.50
  Q 1402.57 407.50 1402.63 408.17
  Z
  M 1534.53 359.95
  C 1534.27 344.87 1528.98 330.66 1518.07 320.08
  Q 1502.88 305.34 1481.73 302.02
  C 1457.22 298.18 1433.03 304.89 1417.45 324.61
  Q 1406.30 338.72 1403.17 359.84
  Q 1403.08 360.50 1403.74 360.50
  L 1533.99 360.50
  Q 1534.54 360.50 1534.53 359.95
  Z"
/>
<path fill="#ffffff" d="
  M 2157.59 286.74
  L 2157.59 248.58
  Q 2157.59 248.00 2158.17 248.00
  L 2227.51 248.00
  Q 2228.02 248.00 2228.02 248.51
  L 2228.02 524.49
  Q 2228.02 525.00 2227.51 525.00
  L 2158.04 525.00
  Q 2157.58 525.00 2157.59 524.54
  L 2157.60 485.51
  Q 2157.60 484.45 2156.93 485.28
  C 2154.01 488.92 2151.29 492.67 2147.98 496.00
  C 2130.07 514.04 2107.28 525.62 2081.83 528.50
  C 2064.46 530.47 2047.06 529.57 2030.48 524.42
  Q 1994.96 513.37 1972.20 485.11
  Q 1948.15 455.23 1942.00 415.79
  Q 1935.63 374.96 1946.01 337.41
  C 1953.07 311.88 1968.38 286.29 1989.55 269.66
  Q 2018.75 246.72 2056.00 243.89
  Q 2073.24 242.58 2091.01 245.77
  Q 2095.77 246.62 2100.61 248.15
  C 2105.02 249.54 2109.37 250.76 2113.54 252.72
  C 2130.76 260.80 2145.61 271.94 2156.95 286.95
  Q 2157.59 287.80 2157.59 286.74
  Z
  M 2156.66 400.46
  Q 2158.94 381.25 2155.15 363.65
  C 2151.46 346.52 2141.87 329.93 2127.72 319.62
  Q 2111.49 307.78 2092.89 305.56
  Q 2070.04 302.82 2049.32 313.94
  C 2031.01 323.76 2018.19 342.60 2013.68 362.47
  Q 2009.59 380.53 2012.04 399.73
  C 2014.66 420.29 2024.64 439.94 2040.98 452.84
  Q 2051.07 460.80 2064.53 465.15
  Q 2073.37 468.01 2084.03 467.99
  Q 2109.02 467.94 2128.73 452.60
  C 2144.94 439.98 2154.21 421.04 2156.66 400.46
  Z"
/>
<path fill="#ffffff" d="
  M 1773.89 459.60
  L 1843.51 248.24
  A 0.35 0.35 0.0 0 1 1843.84 248.00
  L 1917.54 248.00
  A 0.35 0.35 0.0 0 1 1917.87 248.47
  L 1815.62 524.77
  A 0.35 0.35 0.0 0 1 1815.30 525.00
  L 1730.84 525.00
  A 0.35 0.35 0.0 0 1 1730.52 524.77
  L 1628.77 248.47
  A 0.35 0.35 0.0 0 1 1629.10 248.00
  L 1703.29 248.00
  A 0.35 0.35 0.0 0 1 1703.62 248.24
  L 1773.23 459.60
  A 0.35 0.35 0.0 0 0 1773.89 459.60
  Z"
/>
</svg>
