<?xml version="1.0" encoding="UTF-8" standalone="no"?>
<!DOCTYPE svg PUBLIC "-//W3C//DTD SVG 1.1//EN" "http://www.w3.org/Graphics/SVG/1.1/DTD/svg11.dtd">
<svg xmlns="http://www.w3.org/2000/svg" version="1.1" viewBox="0.00 0.00 2263.00 700.00">
<g stroke-width="2.00" fill="none" stroke-linecap="butt">
<path stroke="#54b8cd" vector-effect="non-scaling-stroke" d="
  M 536.38 158.18
  Q 536.13 158.64 535.35 159.35
  Q 426.36 257.46 319.61 353.62
  C 300.00 371.28 289.59 396.41 290.50 422.54
  C 291.23 443.73 299.20 462.98 313.57 478.95
  Q 356.49 526.68 398.16 572.85
  Q 398.28 572.98 398.31 573.42"
/>
<path stroke="#0f84a9" vector-effect="non-scaling-stroke" d="
  M 430.56 255.33
  Q 430.04 255.62 429.63 255.99
  Q 378.70 302.05 328.88 346.77
  Q 319.11 355.54 314.41 360.81
  Q 296.07 381.37 292.67 411.42
  Q 291.58 421.02 293.15 430.73
  Q 296.41 450.88 306.70 466.52
  C 310.22 471.86 314.39 476.69 318.72 481.48
  Q 358.44 525.40 399.77 571.35
  A 0.62 0.62 0.0 0 0 400.64 571.39
  Q 507.58 475.18 615.09 378.32
  C 651.44 345.57 655.03 290.02 622.19 253.45
  Q 579.99 206.46 537.66 159.42
  A 0.55 0.55 0.0 0 0 536.88 159.38
  Q 484.12 206.92 431.48 254.32
  Q 431.26 254.52 431.11 254.78
  A 1.48 1.48 0.0 0 1 430.56 255.33"
/>
</g>
<path fill="#97d7e1" d="
  M 536.38 158.18
  Q 536.13 158.64 535.35 159.35
  Q 426.36 257.46 319.61 353.62
  C 300.00 371.28 289.59 396.41 290.50 422.54
  C 291.23 443.73 299.20 462.98 313.57 478.95
  Q 356.49 526.68 398.16 572.85
  Q 398.28 572.98 398.31 573.42
  L 258.53 699.22
  A 0.35 0.34 -42.1 0 1 258.04 699.20
  Q 158.77 589.06 60.09 479.54
  Q 38.40 455.47 36.46 424.52
  C 34.75 397.40 45.91 371.34 65.68 353.53
  Q 243.82 193.19 422.58 32.27
  A 0.33 0.33 0.0 0 1 423.05 32.30
  L 536.38 158.18
  Z"
/>
<path fill="#1099b9" d="
  M 398.31 573.42
  Q 398.28 572.98 398.16 572.85
  Q 356.49 526.68 313.57 478.95
  C 299.20 462.98 291.23 443.73 290.50 422.54
  C 289.59 396.41 300.00 371.28 319.61 353.62
  Q 426.36 257.46 535.35 159.35
  Q 536.13 158.64 536.38 158.18
  L 676.47 32.37
  Q 676.84 32.03 677.17 32.40
  Q 777.36 143.64 876.53 253.90
  Q 887.67 266.29 893.64 282.95
  C 904.31 312.73 897.87 346.10 877.16 370.04
  Q 873.30 374.50 862.81 383.94
  Q 687.66 541.62 512.58 699.20
  A 0.40 0.40 0.0 0 1 512.01 699.17
  L 398.31 573.42
  Z
  M 430.56 255.33
  Q 430.04 255.62 429.63 255.99
  Q 378.70 302.05 328.88 346.77
  Q 319.11 355.54 314.41 360.81
  Q 296.07 381.37 292.67 411.42
  Q 291.58 421.02 293.15 430.73
  Q 296.41 450.88 306.70 466.52
  C 310.22 471.86 314.39 476.69 318.72 481.48
  Q 358.44 525.40 399.77 571.35
  A 0.62 0.62 0.0 0 0 400.64 571.39
  Q 507.58 475.18 615.09 378.32
  C 651.44 345.57 655.03 290.02 622.19 253.45
  Q 579.99 206.46 537.66 159.42
  A 0.55 0.55 0.0 0 0 536.88 159.38
  Q 484.12 206.92 431.48 254.32
  Q 431.26 254.52 431.11 254.78
  A 1.48 1.48 0.0 0 1 430.56 255.33
  Z"
/>
<rect fill="#2a2859" x="1210.55" y="155.00" width="69.98" height="370.00" rx="0.47"/>
<path fill="#0d6e98" d="
  M 431.11 254.78
  Q 431.26 254.52 431.48 254.32
  Q 484.12 206.92 536.88 159.38
  A 0.55 0.55 0.0 0 1 537.66 159.42
  Q 579.99 206.46 622.19 253.45
  C 655.03 290.02 651.44 345.57 615.09 378.32
  Q 507.58 475.18 400.64 571.39
  A 0.62 0.62 0.0 0 1 399.77 571.35
  Q 358.44 525.40 318.72 481.48
  C 314.39 476.69 310.22 471.86 306.70 466.52
  Q 296.41 450.88 293.15 430.73
  Q 291.58 421.02 292.67 411.42
  Q 296.07 381.37 314.41 360.81
  Q 319.11 355.54 328.88 346.77
  Q 378.70 302.05 429.63 255.99
  Q 430.04 255.62 430.56 255.33
  A 1.48 1.48 0.0 0 0 431.11 254.78
  Z"
/>
<path fill="#2a2859" d="
  M 1014.85 468.00
  L 1146.73 468.00
  A 0.31 0.31 0.0 0 1 1147.04 468.31
  L 1147.04 524.69
  A 0.31 0.31 0.0 0 1 1146.73 525.00
  L 944.87 525.00
  A 0.31 0.31 0.0 0 1 944.56 524.69
  L 944.57 175.82
  A 0.31 0.31 0.0 0 1 944.88 175.51
  L 1146.73 175.49
  A 0.31 0.31 0.0 0 1 1147.04 175.80
  L 1147.04 232.19
  A 0.31 0.31 0.0 0 1 1146.73 232.50
  L 1014.85 232.50
  A 0.31 0.31 0.0 0 0 1014.54 232.81
  L 1014.54 319.69
  A 0.31 0.31 0.0 0 0 1014.85 320.00
  L 1131.73 320.00
  A 0.31 0.31 0.0 0 1 1132.04 320.31
  L 1132.04 375.19
  A 0.31 0.31 0.0 0 1 1131.73 375.50
  L 1014.85 375.50
  A 0.31 0.31 0.0 0 0 1014.54 375.81
  L 1014.54 467.69
  A 0.31 0.31 0.0 0 0 1014.85 468.00
  Z"
/>
<path fill="#2a2859" d="
  M 1402.67 408.13
  C 1404.30 428.34 1412.37 446.56 1428.86 458.82
  Q 1437.21 465.04 1446.65 468.02
  Q 1466.85 474.40 1487.68 469.09
  Q 1509.08 463.64 1520.80 444.40
  Q 1522.65 441.36 1524.35 438.40
  Q 1524.59 438.00 1525.05 438.00
  L 1599.31 438.00
  Q 1599.95 438.00 1599.77 438.61
  Q 1592.81 462.29 1577.01 481.54
  Q 1544.97 520.60 1494.57 527.74
  C 1461.81 532.38 1427.98 527.95 1399.06 511.81
  C 1367.02 493.92 1344.57 463.08 1336.29 427.39
  Q 1327.00 387.37 1335.87 346.76
  Q 1339.87 328.46 1348.88 311.51
  C 1366.29 278.74 1395.56 256.83 1431.32 248.16
  Q 1469.51 238.91 1508.09 247.88
  Q 1530.02 252.98 1549.01 265.10
  C 1597.03 295.77 1613.05 352.84 1605.17 406.93
  A 0.67 0.66 4.0 0 1 1604.51 407.50
  L 1403.25 407.50
  Q 1402.61 407.50 1402.67 408.13
  Z
  M 1442.68 305.76
  C 1419.55 315.18 1406.34 335.86 1403.19 360.20
  A 0.26 0.26 0.0 0 0 1403.45 360.50
  L 1534.21 360.50
  Q 1534.50 360.50 1534.49 360.21
  C 1534.13 338.86 1524.46 322.34 1506.84 311.30
  C 1488.72 299.94 1462.67 297.63 1442.68 305.76
  Z"
/>
<path fill="#2a2859" d="
  M 2157.56 286.70
  L 2157.55 248.48
  A 0.48 0.47 -90.0 0 1 2158.02 248.00
  L 2227.52 248.00
  Q 2228.04 248.00 2228.04 248.52
  L 2228.04 524.48
  Q 2228.04 525.00 2227.52 525.00
  L 2157.77 525.00
  A 0.23 0.22 -90.0 0 1 2157.55 524.77
  L 2157.55 485.28
  Q 2157.56 484.53 2157.09 485.11
  C 2153.92 489.05 2151.04 493.03 2147.34 496.67
  C 2129.41 514.31 2107.37 525.50 2082.22 528.49
  C 2064.79 530.56 2046.79 529.59 2030.00 524.31
  Q 1994.09 513.01 1971.10 483.75
  Q 1948.45 454.92 1942.26 417.41
  C 1934.40 369.74 1943.07 320.20 1975.04 283.51
  C 1995.47 260.07 2024.79 246.35 2055.50 243.91
  Q 2075.20 242.34 2094.86 246.57
  Q 2098.61 247.37 2105.49 249.61
  Q 2110.77 251.32 2115.40 253.57
  Q 2133.90 262.57 2147.56 276.08
  C 2151.02 279.50 2153.88 283.22 2157.03 286.89
  Q 2157.56 287.50 2157.56 286.70
  Z
  M 2095.18 467.17
  C 2107.41 465.42 2119.96 459.81 2129.50 451.98
  Q 2144.90 439.35 2151.89 420.43
  Q 2156.06 409.16 2157.10 396.08
  C 2158.31 380.90 2156.91 364.98 2151.18 350.84
  Q 2137.84 317.92 2103.45 307.71
  Q 2094.38 305.01 2084.02 305.04
  Q 2064.67 305.08 2047.35 315.07
  Q 2039.04 319.87 2032.30 327.20
  Q 2014.29 346.81 2011.69 374.78
  Q 2009.98 393.10 2013.74 408.92
  Q 2018.52 429.06 2031.96 444.32
  Q 2040.67 454.20 2053.34 460.66
  C 2056.51 462.28 2059.82 463.35 2063.10 464.63
  Q 2066.73 466.05 2070.53 466.74
  Q 2082.73 468.95 2095.18 467.17
  Z"
/>
<path fill="#2a2859" d="
  M 1843.82 248.00
  L 1917.57 248.00
  A 0.34 0.34 0.0 0 1 1917.89 248.46
  L 1815.64 524.78
  A 0.34 0.34 0.0 0 1 1815.32 525.00
  L 1730.82 525.00
  A 0.34 0.34 0.0 0 1 1730.50 524.78
  L 1628.74 248.46
  A 0.34 0.34 0.0 0 1 1629.06 248.00
  L 1703.31 248.00
  A 0.34 0.34 0.0 0 1 1703.64 248.23
  L 1773.25 459.57
  A 0.34 0.34 0.0 0 0 1773.89 459.57
  L 1843.49 248.23
  A 0.34 0.34 0.0 0 1 1843.82 248.00
  Z"
/>
</svg>
